<svg width="32" height="32" viewBox="0 0 32 32" fill="none" xmlns="http://www.w3.org/2000/svg">
<path d="M11.6445 27.1621H20.357V27.6434C20.357 30.0496 18.407 31.9996 16.0008 31.9996C13.5945 31.9996 11.6445 30.0496 11.6445 27.6434V27.1621Z" fill="black"/>
<path d="M29.3312 22.5438L26.9438 20.1562C26.3563 19.5688 26.0312 18.775 26.0312 17.9438V13.625C26.0312 8.9 22.6687 4.84375 18.0187 3.96875V2.01875C18.0187 0.90625 17.1125 0 16 0C14.8875 0 13.9812 0.90625 13.9812 2.01875V3.96875C9.3375 4.84375 5.96875 8.9 5.96875 13.625V17.9438C5.96875 18.775 5.6375 19.5688 5.05625 20.1562L2.66875 22.5438C2.3 22.9125 2.09375 23.4187 2.09375 23.9375C2.09375 25.025 2.975 25.9125 4.06875 25.9125H27.9375C29.025 25.9125 29.9125 25.0312 29.9125 23.9375C29.9063 23.4125 29.7 22.9125 29.3312 22.5438Z" fill="black"/>
</svg>
