<svg width="32" height="32" viewBox="0 0 32 32" fill="none" xmlns="http://www.w3.org/2000/svg">
<path d="M15.9981 29.9996C17.4781 29.9996 18.7981 29.3295 19.6681 28.2695H12.3281C13.1981 29.3295 14.5181 29.9996 15.9981 29.9996Z" fill="black"/>
<path d="M7.51953 14.66V20.24L20.3495 7.40997C19.8295 7.08997 19.2595 6.82996 18.6695 6.63C18.9295 6.16998 19.0895 5.64996 19.0895 5.08997C19.0895 3.39001 17.7095 2 15.9995 2C14.2895 2 12.9095 3.39001 12.9095 5.08997C12.9095 5.64996 13.0695 6.16998 13.3295 6.62C9.95953 7.73999 7.51953 10.92 7.51953 14.66Z" fill="black"/>
<path d="M28.293 2.29297L2.29297 28.293C1.90234 28.6836 1.90234 29.3164 2.29297 29.707C2.48828 29.9023 2.74414 30 3 30C3.25586 30 3.51172 29.9023 3.70703 29.707L7.19489 26.2192C7.32031 26.236 7.44122 26.27 7.57001 26.27H24.43C26.01 26.27 27.29 24.99 27.29 23.41C27.29 21.85 26.04 20.58 24.48 20.55V14.66C24.48 13.78 24.35 12.94 24.1 12.14C23.8839 11.4509 23.579 10.8072 23.2046 10.2095L29.707 3.70703C30.0977 3.31641 30.0977 2.68359 29.707 2.29297C29.3164 1.90234 28.6836 1.90234 28.293 2.29297Z" fill="black"/>
</svg>
